<svg width="13" height="13" viewBox="0 0 13 13" fill="none" xmlns="http://www.w3.org/2000/svg">
<path d="M12.8065 2.6739C12.3542 2.87432 11.8683 3.00973 11.3575 3.07094C11.8846 2.75558 12.2789 2.25924 12.4669 1.67453C11.9717 1.96865 11.4298 2.17568 10.8646 2.28661C10.4846 1.88083 9.9812 1.61187 9.43264 1.5215C8.88408 1.43112 8.32102 1.52438 7.83089 1.78679C7.34076 2.04921 6.95098 2.4661 6.72206 2.97274C6.49314 3.47938 6.43789 4.04743 6.56489 4.58868C5.56156 4.53831 4.58003 4.27752 3.68401 3.82326C2.78799 3.369 1.9975 2.7314 1.36384 1.95186C1.14717 2.32561 1.02259 2.75894 1.02259 3.22044C1.02235 3.63589 1.12465 4.04498 1.32044 4.41141C1.51622 4.77784 1.79942 5.09028 2.14492 5.32101C1.74423 5.30826 1.35239 5.2 1.002 5.00522V5.03772C1.00196 5.62041 1.20352 6.18517 1.57248 6.63617C1.94143 7.08717 2.45506 7.39663 3.0262 7.51204C2.6545 7.61264 2.26481 7.62746 1.88654 7.55538C2.04769 8.05675 2.36158 8.49518 2.78428 8.80929C3.20698 9.1234 3.71732 9.29746 4.24386 9.30712C3.35003 10.0088 2.24615 10.3894 1.1098 10.3877C0.908503 10.3878 0.707381 10.376 0.507465 10.3525C1.66093 11.0942 3.00364 11.4878 4.37495 11.4862C9.01701 11.4862 11.5547 7.6415 11.5547 4.30702C11.5547 4.19868 11.552 4.08927 11.5471 3.98094C12.0407 3.62397 12.4668 3.18193 12.8054 2.67553L12.8065 2.6739Z" fill="white"/>
</svg>
