<svg width="13" height="13" viewBox="0 0 13 13" fill="none" xmlns="http://www.w3.org/2000/svg">
<path d="M11.3461 4.49841C11.3407 4.08817 11.2639 3.682 11.1192 3.29808C10.9937 2.97425 10.8021 2.68015 10.5565 2.43458C10.3109 2.18901 10.0168 1.99736 9.69299 1.87188C9.314 1.72962 8.91363 1.65269 8.50891 1.64438C7.98783 1.62109 7.82262 1.61459 6.49988 1.61459C5.17713 1.61459 5.00759 1.61459 4.4903 1.64438C4.08577 1.65276 3.68558 1.72968 3.30677 1.87188C2.98288 1.99727 2.68874 2.18889 2.44316 2.43447C2.19757 2.68006 2.00596 2.9742 1.88057 3.29808C1.73802 3.67678 1.66126 4.07706 1.65361 4.48162C1.63032 5.00324 1.62328 5.16845 1.62328 6.49119C1.62328 7.81394 1.62328 7.98294 1.65361 8.50077C1.66173 8.90593 1.73811 9.30568 1.88057 9.68539C2.00617 10.0092 2.19793 10.3032 2.44359 10.5487C2.68926 10.7942 2.98343 10.9857 3.30731 11.111C3.68508 11.259 4.08534 11.3415 4.49085 11.3548C5.01247 11.3781 5.17768 11.3851 6.50042 11.3851C7.82316 11.3851 7.9927 11.3851 8.50999 11.3548C8.9147 11.3468 9.3151 11.2701 9.69407 11.1278C10.0178 11.0022 10.3118 10.8105 10.5574 10.565C10.8029 10.3194 10.9946 10.0254 11.1203 9.70164C11.2627 9.32247 11.3391 8.92272 11.3472 8.51702C11.3705 7.99594 11.3776 7.83073 11.3776 6.50744C11.3765 5.1847 11.3765 5.01678 11.3461 4.49841ZM6.49663 8.9926C5.11322 8.9926 3.99251 7.87189 3.99251 6.48848C3.99251 5.10508 5.11322 3.98437 6.49663 3.98437C7.16076 3.98437 7.79769 4.2482 8.2673 4.71781C8.73691 5.18742 9.00074 5.82435 9.00074 6.48848C9.00074 7.15262 8.73691 7.78955 8.2673 8.25916C7.79769 8.72877 7.16076 8.9926 6.49663 8.9926ZM9.10041 4.47566C8.77703 4.47566 8.51649 4.21458 8.51649 3.89175C8.51649 3.8151 8.53159 3.73921 8.56092 3.6684C8.59025 3.59759 8.63324 3.53325 8.68744 3.47905C8.74163 3.42485 8.80597 3.38186 8.87678 3.35253C8.94759 3.3232 9.02349 3.30811 9.10013 3.30811C9.17678 3.30811 9.25267 3.3232 9.32348 3.35253C9.3943 3.38186 9.45864 3.42485 9.51283 3.47905C9.56703 3.53325 9.61002 3.59759 9.63935 3.6684C9.66868 3.73921 9.68378 3.8151 9.68378 3.89175C9.68378 4.21458 9.4227 4.47566 9.10041 4.47566Z" fill="white"/>
<path d="M6.4967 8.11489C7.39506 8.11489 8.12332 7.38663 8.12332 6.48827C8.12332 5.58992 7.39506 4.86166 6.4967 4.86166C5.59835 4.86166 4.87008 5.58992 4.87008 6.48827C4.87008 7.38663 5.59835 8.11489 6.4967 8.11489Z" fill="white"/>
</svg>
